/vscmnt/brussel_pixiu_data/_data_brussel/112/vsc11236/PredSimResults/SUBJ07mtu3D/worker8.mot
version=1
nRows=6
nColumns=50
inDegrees=yes
endheader
                time	         pelvis_tilt	         pelvis_list	     pelvis_rotation	           pelvis_tx	           pelvis_ty	           pelvis_tz	       hip_flexion_r	     hip_adduction_r	      hip_rotation_r	        knee_angle_r	       ankle_angle_r	         mtp_angle_r	       hip_flexion_l	     hip_adduction_l	      hip_rotation_l	        knee_angle_l	       ankle_angle_l	         mtp_angle_l	    lumbar_extension	      lumbar_bending	     lumbar_rotation	 ercspn_r/activation	 intobl_r/activation	 extobl_r/activation	    abd_r/activation	    add_r/activation	hamstrings_r/activation	bifemsh_r/activation	glut_max_r/activation	iliopsoas_r/activation	rect_fem_r/activation	  vasti_r/activation	gastroc_r/activation	 soleus_r/activation	tib_ant_r/activation	 ercspn_l/activation	 intobl_l/activation	 extobl_l/activation	    abd_l/activation	    add_l/activation	hamstrings_l/activation	bifemsh_l/activation	glut_max_l/activation	iliopsoas_l/activation	rect_fem_l/activation	  vasti_l/activation	gastroc_l/activation	 soleus_l/activation	tib_ant_l/activation	
          1.02653897	         -4.82804365	          0.67646340	          6.54477986	          1.25237755	          0.85450461	         -0.01130165	         29.84478148	         -1.92730128	         -0.17064809	         -7.28250318	          3.51444787	          0.28261645	        -12.78296268	          1.79384525	          5.28706952	         -7.33634542	          8.08685389	         24.67766394	         -8.77457181	         -2.13391035	         -2.46042286	          0.11868105	          0.15494794	          0.01000003	          0.04456564	          0.11683904	          0.04120828	          0.01000406	          0.09599382	          0.01000037	          0.02898842	          0.02376522	          0.01000002	          0.01000000	          0.35875732	          0.11323858	          0.01000000	          0.01000000	          0.04205092	          0.01000003	          0.01079665	          0.13309732	          0.01371461	          0.13770459	          0.01171079	          0.01000002	          0.08666194	          0.24732336	          0.01606093	
          1.03680436	         -4.83211908	          0.77684639	          6.53697953	          1.26703187	          0.85330934	         -0.01141665	         29.34619416	         -1.79106637	          0.10587224	         -8.11442204	          3.29099225	          0.26491011	        -13.10988219	          1.87606921	          5.02169278	         -8.55809001	          7.36963853	         26.26330103	         -8.60489604	         -1.78445461	         -2.61336164	          0.10134240	          0.13231091	          0.01000001	          0.03805491	          0.10263941	          0.04971619	          0.01000039	          0.14139597	          0.01000001	          0.02475338	          0.02029326	          0.01880993	          0.01761731	          0.36341224	          0.13511051	          0.01000001	          0.01000005	          0.03590751	          0.01171098	          0.01783881	          0.11365254	          0.01171100	          0.11758671	          0.01000004	          0.01000005	          0.07400111	          0.23213730	          0.01371451	
          1.04706975	         -4.83489752	          0.85222433	          6.48833339	          1.28179395	          0.85228133	         -0.01147592	         28.81829075	         -1.68905108	          0.39938886	         -8.98377632	          3.05470102	          0.26013657	        -13.28741991	          1.94594282	          4.72857631	        -10.05317228	          6.56848065	         27.82894469	         -8.42023075	         -1.40069449	         -2.75442489	          0.12379388	          0.11298102	          0.01000001	          0.11346471	          0.10889243	          0.04889443	          0.04851638	          0.15098314	          0.01000001	          0.02113705	          0.01732853	          0.01606191	          0.01504352	          0.39683812	          0.14135201	          0.01000000	          0.01000001	          0.03066162	          0.01000007	          0.01523294	          0.09704853	          0.01000009	          0.10040794	          0.01000013	          0.01000000	          0.06318995	          0.20483220	          0.01171090	
          1.05733514	         -4.83775111	          0.92474049	          6.39787471	          1.29650828	          0.85155455	         -0.01144972	         28.32447528	         -1.59153877	          0.62805113	         -9.86558284	          2.72087238	          0.24284129	        -13.24309536	          2.02963843	          4.41032665	        -11.92748171	          5.65634087	         29.33265216	         -8.24007625	         -1.01228422	         -2.87957437	          0.11998499	          0.09647511	          0.01000001	          0.15147202	          0.12494929	          0.05247908	          0.04142849	          0.15412603	          0.01000001	          0.01804905	          0.03555683	          0.01371536	          0.01284575	          0.41604469	          0.17216129	          0.01000000	          0.01000001	          0.02618213	          0.01000031	          0.01425963	          0.08287028	          0.01000003	          0.08573889	          0.01000008	          0.01000005	          0.05395825	          0.17490734	          0.01000000	
          1.06760053	         -4.84131404	          0.98598093	          6.27372599	          1.31107655	          0.85123209	         -0.01133656	         27.87690657	         -1.47880284	          0.81659893	        -10.81519094	          2.50006912	          0.22538015	        -12.91293553	          2.11847535	          4.07115639	        -14.27426582	          4.63098806	         30.67328089	         -8.07155496	         -0.61437415	         -2.99203631	          0.11987594	          0.08238063	          0.01000001	          0.17999525	          0.13522811	          0.05657575	          0.03537614	          0.16259513	          0.01000001	          0.01541220	          0.06596724	          0.01171163	          0.01096906	          0.42613319	          0.19250301	          0.01000000	          0.01000001	          0.02235706	          0.03000373	          0.02123985	          0.07076339	          0.01000002	          0.07321291	          0.01000004	          0.01000002	          0.04607524	          0.14935434	          0.00999999	
          1.07786592	         -4.84700188	          1.03568865	          6.11811623	          1.32541819	          0.85141001	         -0.01114801	         27.43221704	         -1.35114869	          0.97871810	        -11.74678976	          2.41556415	          0.20708735	        -12.23664602	          2.21430694	          3.70491648	        -17.17682360	          3.48502191	         31.68584113	         -7.92028832	         -0.20918326	         -3.09050777	          0.11397619	          0.07034527	          0.01000001	          0.19726455	          0.14284727	          0.05987205	          0.03020805	          0.16228081	          0.01000001	          0.01316057	          0.10021865	          0.01000067	          0.01000005	          0.42393425	          0.20891895	          0.01000000	          0.01000001	          0.01909082	          0.04912215	          0.02466218	          0.06042525	          0.01000000	          0.06251691	          0.01000002	          0.01000000	          0.03934390	          0.12753448	          0.01000000	
